<?xml version="1.0" encoding="UTF-8" standalone="no"?>
<svg
   height="48"
   viewBox="0 96 960 960"
   width="48"
   version="1.1"
   id="svg4"
   sodipodi:docname="icone-lupa.svg"
   inkscape:version="1.1.2 (0a00cf5339, 2022-02-04)"
   xmlns:inkscape="http://www.inkscape.org/namespaces/inkscape"
   xmlns:sodipodi="http://sodipodi.sourceforge.net/DTD/sodipodi-0.dtd"
   xmlns="http://www.w3.org/2000/svg"
   xmlns:svg="http://www.w3.org/2000/svg">
  <defs
     id="defs8" />
  <sodipodi:namedview
     id="namedview6"
     pagecolor="#ffffff"
     bordercolor="#666666"
     borderopacity="1.0"
     inkscape:pageshadow="2"
     inkscape:pageopacity="0.0"
     inkscape:pagecheckerboard="0"
     showgrid="false"
     inkscape:zoom="80.294076"
     inkscape:cx="46.665958"
     inkscape:cy="44.262294"
     inkscape:window-width="1920"
     inkscape:window-height="983"
     inkscape:window-x="0"
     inkscape:window-y="0"
     inkscape:window-maximized="1"
     inkscape:current-layer="svg4" />
  <path
     d="M 888.21485,1040.3856 547.16342,699.33416 c -25.93547,22.47741 -56.1758,39.98384 -90.72099,52.51932 -34.54518,12.53549 -71.3048,18.80323 -110.27892,18.80323 -93.50774,0 -172.64595,-32.41935 -237.41459,-97.25803 C 43.98027,608.56001 11.595944,530.32135 11.595944,438.68269 c 0,-91.63867 32.419339,-169.87735 97.258016,-234.71602 64.83868,-64.83868 143.29347,-97.25801 235.3644,-97.25801 92.07092,0 170.30958,32.41933 234.716,97.25801 64.40643,64.83867 96.60963,143.14218 96.60963,234.91052 0,37.0445 -6.05161,72.85706 -18.15483,107.43769 -12.10321,34.58063 -30.25804,66.99997 -54.46449,97.25801 l 342.34822,339.75467 c 16.24045,16.11739 18.36429,43.51314 4.53663,58.14404 -13.92567,14.7344 -43.92324,16.5854 -61.59467,-1.086 z M 344.86674,692.8503 c 70.24191,0 129.94751,-24.85484 179.11685,-74.56449 49.16933,-49.70965 73.75399,-109.57736 73.75399,-179.60312 0,-70.02579 -24.58466,-129.8935 -73.75399,-179.60315 -49.16934,-49.70964 -108.87494,-74.56448 -179.11685,-74.56448 -70.96204,0 -131.28016,24.85484 -180.95436,74.56448 -49.67335,49.70965 -74.510023,109.57736 -74.510023,179.60315 0,70.02576 24.836673,129.89347 74.510023,179.60312 49.6742,49.70965 109.99232,74.56449 180.95436,74.56449 z"
     id="path2"
     sodipodi:nodetypes="scssssssssscsssssssscscs"
     fill="#ffffff"
     stroke-width="1.29677"/>
</svg>
