<?xml version="1.0" encoding="UTF-8" standalone="no"?>
<svg
   height="48"
   viewBox="0 96 960 960"
   width="48"
   version="1.1"
   id="svg4"
   sodipodi:docname="search_FILL0_wght400_GRAD0_opsz48.svg"
   inkscape:version="1.1.2 (0a00cf5339, 2022-02-04)"
   xmlns:inkscape="http://www.inkscape.org/namespaces/inkscape"
   xmlns:sodipodi="http://sodipodi.sourceforge.net/DTD/sodipodi-0.dtd"
   xmlns:xlink="http://www.w3.org/1999/xlink"
   xmlns="http://www.w3.org/2000/svg"
   xmlns:svg="http://www.w3.org/2000/svg">
  <defs
     id="defs8">
    <linearGradient
       inkscape:collect="always"
       id="linearGradient1639">
      <stop
         style="stop-color:#11002b;stop-opacity:1"
         offset="0"
         id="stop1635" />
      <stop
         style="stop-color:#800080;stop-opacity:1"
         offset="1"
         id="stop1637" />
    </linearGradient>
    <linearGradient
       inkscape:collect="always"
       xlink:href="#linearGradient1639"
       id="linearGradient1641"
       x1="664.66461"
       y1="799.25269"
       x2="861.88605"
       y2="980.99976"
       gradientUnits="userSpaceOnUse" />
  </defs>
  <sodipodi:namedview
     id="namedview6"
     pagecolor="#ffffff"
     bordercolor="#666666"
     borderopacity="1.0"
     inkscape:pageshadow="2"
     inkscape:pageopacity="0.0"
     inkscape:pagecheckerboard="0"
     showgrid="false"
     inkscape:zoom="28.963094"
     inkscape:cx="44.643021"
     inkscape:cy="41.432038"
     inkscape:window-width="1920"
     inkscape:window-height="983"
     inkscape:window-x="0"
     inkscape:window-y="0"
     inkscape:window-maximized="1"
     inkscape:current-layer="svg4" />
  <path
     d="M 796,935 533,672 c -20,17.33333 -43.31967,30.83333 -69.959,40.5 C 436.40167,722.16667 408.05467,727 378,727 305.892,727 244.865,702 194.919,652 144.973,602 120,541.66667 120,471 c 0,-70.66667 25,-131 75,-181 50,-50 110.5,-75 181.5,-75 71,0 131.33333,25 181,75 49.66667,50 74.5,110.38333 74.5,181.15 0,28.56667 -4.66667,56.18333 -14,82.85 -9.33333,26.66667 -23.33333,51.66667 -42,75 l 264,262 c 12.52374,12.42886 14.16153,33.55495 3.4984,44.83741 C 832.7597,947.19983 809.62723,948.62723 796,935 Z M 377,667 c 54.16667,0 100.20833,-19.16667 138.125,-57.5 C 553.04167,571.16667 572,525 572,471 572,417 553.04167,370.83333 515.125,332.5 477.20833,294.16667 431.16667,275 377,275 322.278,275 275.764,294.16667 237.458,332.5 199.15267,370.83333 180,417 180,471 c 0,54 19.15267,100.16667 57.458,138.5 38.306,38.33333 84.82,57.5 139.542,57.5 z"
     id="path2"
     sodipodi:nodetypes="scssssssssscsssssssscscs"
     style="fill:url(#linearGradient1641)" />
</svg>
