<?xml version="1.0" encoding="UTF-8" standalone="no"?>
<svg
   height="48"
   width="48"
   version="1.1"
   id="svg4"
   sodipodi:docname="account_circle_FILL0_wght400_GRAD0_opsz48.svg"
   inkscape:version="1.1.2 (0a00cf5339, 2022-02-04)"
   xmlns:inkscape="http://www.inkscape.org/namespaces/inkscape"
   xmlns:sodipodi="http://sodipodi.sourceforge.net/DTD/sodipodi-0.dtd"
   xmlns="http://www.w3.org/2000/svg"
   xmlns:svg="http://www.w3.org/2000/svg">
  <defs
     id="defs8" />
  <sodipodi:namedview
     id="namedview6"
     pagecolor="#ffffff"
     bordercolor="#666666"
     borderopacity="1.0"
     inkscape:pageshadow="2"
     inkscape:pageopacity="0.0"
     inkscape:pagecheckerboard="0"
     showgrid="false"
     inkscape:zoom="13.25"
     inkscape:cx="24"
     inkscape:cy="24"
     inkscape:window-width="1920"
     inkscape:window-height="983"
     inkscape:window-x="0"
     inkscape:window-y="0"
     inkscape:window-maximized="1"
     inkscape:current-layer="svg4" />
  <path
     d="M 8.9211254,37.150181 Q 12.603176,34.57859 16.226782,33.205127 19.850387,31.831664 24,31.831664 q 4.149613,0 7.802441,1.373463 3.652828,1.373463 7.334879,3.945054 2.571591,-3.156043 3.652828,-6.370532 Q 43.871385,27.56516 43.871385,24 q 0,-8.474561 -5.698412,-14.1729732 Q 32.474561,4.1286149 24,4.1286149 q -8.474561,0 -14.1729732,5.6984119 Q 4.1286149,15.525439 4.1286149,24 q 0,3.56516 1.1104597,6.779649 1.1104598,3.214489 3.6820508,6.370532 z M 24,25.753358 q -3.389825,0 -5.698412,-2.308588 -2.308587,-2.308587 -2.308587,-5.698412 0,-3.389824 2.308587,-5.698412 Q 20.610175,9.7393589 24,9.7393589 q 3.389825,0 5.698412,2.3085871 2.308587,2.308588 2.308587,5.698412 0,3.389825 -2.308587,5.698412 Q 27.389825,25.753358 24,25.753358 Z M 24,47.3781 q -4.792511,0 -9.059014,-1.841025 Q 10.674483,43.696049 7.4892168,40.510783 4.3039506,37.325517 2.4629253,33.059014 0.62189987,28.792511 0.62189987,24 q 0,-4.850956 1.84102543,-9.088236 Q 4.3039506,10.674483 7.4892168,7.4892168 10.674483,4.3039506 14.940986,2.4629253 19.207489,0.62189987 24,0.62189987 q 4.850956,0 9.088236,1.84102543 4.237281,1.8410253 7.422547,5.0262915 3.185266,3.1852662 5.026292,7.4225472 Q 47.3781,19.149044 47.3781,24 q 0,4.792511 -1.841025,9.059014 -1.841026,4.266503 -5.026292,7.451769 -3.185266,3.185266 -7.422547,5.026292 Q 28.850956,47.3781 24,47.3781 Z m 0,-3.506715 q 3.214489,0 6.282864,-0.935124 3.068376,-0.935124 6.049084,-3.272934 Q 33.35124,37.559298 30.253642,36.448838 27.156044,35.338379 24,35.338379 q -3.156044,0 -6.253642,1.110459 -3.097598,1.11046 -6.078306,3.214489 2.980708,2.33781 6.049084,3.272934 Q 20.785511,43.871385 24,43.871385 Z m 0,-21.624743 q 1.987139,0 3.243711,-1.256572 1.256573,-1.256573 1.256573,-3.243712 0,-1.987138 -1.256573,-3.243711 Q 25.987139,13.246074 24,13.246074 q -1.987139,0 -3.243711,1.256573 -1.256573,1.256573 -1.256573,3.243711 0,1.987139 1.256573,3.243712 Q 22.012861,22.246642 24,22.246642 Z m 0,-4.500284 z m 0,21.858524 z"
     id="path2"
     style="stroke-width:1.16891;fill:#ffffff" />
</svg>
